<svg width="36" height="28" viewBox="0 0 36 28" xmlns="http://www.w3.org/2000/svg">
<path d="M5.64 11.49L5.44 11.49L5.44 4.68L2.84 4.68L2.84 4.49L8.24 4.49L8.24 4.68L5.64 4.68L5.64 11.49ZM12.46 11.52L12.46 11.52Q11.69 11.52 11.03 11.26Q10.38 10.99 9.89 10.51Q9.41 10.03 9.14 9.39Q8.87 8.75 8.87 7.99L8.87 7.99Q8.87 7.23 9.14 6.59Q9.41 5.95 9.89 5.47Q10.38 4.99 11.03 4.72Q11.69 4.46 12.46 4.46L12.46 4.46Q13.23 4.46 13.88 4.72Q14.54 4.99 15.02 5.47Q15.51 5.95 15.78 6.59Q16.05 7.23 16.05 7.99L16.05 7.99Q16.05 8.75 15.78 9.39Q15.51 10.03 15.02 10.51Q14.54 10.99 13.88 11.26Q13.23 11.52 12.46 11.52ZM12.46 11.33L12.46 11.33Q13.18 11.33 13.80 11.08Q14.42 10.83 14.88 10.38Q15.34 9.92 15.59 9.31Q15.85 8.71 15.85 7.99L15.85 7.99Q15.85 7.27 15.59 6.67Q15.34 6.06 14.88 5.61Q14.42 5.15 13.80 4.90Q13.18 4.65 12.46 4.65L12.46 4.65Q11.74 4.65 11.12 4.90Q10.50 5.15 10.04 5.61Q9.58 6.06 9.32 6.67Q9.07 7.27 9.07 7.99L9.07 7.99Q9.07 8.71 9.32 9.31Q9.58 9.92 10.04 10.38Q10.50 10.83 11.12 11.08Q11.74 11.33 12.46 11.33ZM18.17 11.49L17.97 11.49L17.97 4.49L18.14 4.49L21.47 10.31L21.38 10.31L24.70 4.49L24.87 4.49L24.87 11.49L24.66 11.49L24.66 4.78L24.75 4.78L21.48 10.50L21.36 10.50L18.08 4.78L18.17 4.78L18.17 11.49ZM30.38 11.52L30.38 11.52Q29.61 11.52 28.95 11.26Q28.30 10.99 27.81 10.51Q27.32 10.03 27.05 9.39Q26.79 8.75 26.79 7.99L26.79 7.99Q26.79 7.23 27.05 6.59Q27.32 5.95 27.81 5.47Q28.30 4.99 28.95 4.72Q29.61 4.46 30.38 4.46L30.38 4.46Q31.07 4.46 31.69 4.68Q32.30 4.90 32.76 5.35L32.76 5.35L32.63 5.49Q32.16 5.03 31.59 4.84Q31.02 4.65 30.38 4.65L30.38 4.65Q29.66 4.65 29.04 4.91Q28.41 5.16 27.96 5.62Q27.50 6.07 27.24 6.67Q26.98 7.28 26.98 7.99L26.98 7.99Q26.98 8.70 27.24 9.30Q27.50 9.91 27.96 10.37Q28.41 10.82 29.04 11.07Q29.66 11.33 30.38 11.33L30.38 11.33Q31.02 11.33 31.59 11.13Q32.16 10.94 32.63 10.48L32.63 10.48L32.76 10.62Q32.30 11.07 31.69 11.29Q31.07 11.52 30.38 11.52Z" fill="#C4C4C4" stroke="#C4C4C4" stroke-width="0.5"/>
<path d="M12.29 23.68L12.09 23.68L12.09 16.68L12.29 16.68L12.29 23.68ZM6.99 23.68L6.79 23.68L6.79 16.68L6.99 16.68L6.99 23.68ZM12.14 20.22L6.94 20.22L6.94 20.03L12.14 20.03L12.14 20.22ZM15.15 23.68L14.95 23.68L14.95 16.68L15.15 16.68L15.15 23.68ZM22.18 23.68L17.81 23.68L17.81 16.68L18.01 16.68L18.01 23.49L22.18 23.49L22.18 23.68ZM26.26 23.68L23.61 23.68L23.61 16.68L26.26 16.68Q27.37 16.68 28.20 17.13Q29.03 17.59 29.49 18.38Q29.95 19.17 29.95 20.18L29.95 20.18Q29.95 21.19 29.49 21.98Q29.03 22.77 28.20 23.23Q27.37 23.68 26.26 23.68L26.26 23.68ZM23.81 16.87L23.81 23.49L26.24 23.49Q27.31 23.49 28.10 23.06Q28.89 22.63 29.32 21.88Q29.75 21.14 29.75 20.18L29.75 20.18Q29.75 19.22 29.32 18.48Q28.89 17.73 28.10 17.30Q27.31 16.87 26.24 16.87L26.24 16.87L23.81 16.87Z" fill="#C4C4C4" stroke="#C4C4C4" stroke-width="0.5"/>
</svg>